<?xml version="1.0" encoding="utf-8"?>
<!-- Generator: Adobe Illustrator 18.0.0, SVG Export Plug-In . SVG Version: 6.00 Build 0)  -->
<!DOCTYPE svg PUBLIC "-//W3C//DTD SVG 1.1//EN" "http://www.w3.org/Graphics/SVG/1.1/DTD/svg11.dtd">
<svg version="1.1" id="Warstwa_1" xmlns="http://www.w3.org/2000/svg" xmlns:xlink="http://www.w3.org/1999/xlink" x="0px" y="0px"
	 viewBox="0 0 35 11" enable-background="new 0 0 35 11" xml:space="preserve">
<path fill="#FFFFFF" d="M19.2,0.2L23,5.5l-3.8,5.2h2.9l2.3-3.2l2.3,3.2h2.9L22.1,0.2H19.2z M32.1,0.2l-2.3,3.2l-2.3-3.2h-2.9
	l7.6,10.5H35l-3.8-5.2L35,0.2H32.1z M8,3.8c0-1.6-1.1-3-2.6-3.6C5,0.1,4.6,0,4.1,0l0,0H0v1.2c0,0,0,7,0,9.6h2.4V7.7h1.7
	c0,0,0.1,0,0.1,0l2.3,3.1h2.9L6.5,6.8C7.5,6.1,8,5,8,3.8z M4.6,5.2c-0.2,0-0.4,0.1-0.6,0.1H2.4V2.3h1.7c0.8,0,1.5,0.6,1.5,1.5
	C5.6,4.4,5.2,5,4.6,5.2z M16.1,0.2C15.6,0.1,15,0,14.5,0c-0.6,0-1.2,0.1-1.7,0.2c-2.3,0.7-4,2.8-4,5.3s1.7,4.6,4,5.3
	c0.5,0.1,1.1,0.2,1.7,0.2c0.6,0,1.2-0.1,1.7-0.2c2.3-0.7,4-2.8,4-5.3S18.4,0.9,16.1,0.2z M14.5,8.6c-1.8,0-3.3-1.4-3.3-3.2
	c0-1.7,1.5-3.2,3.3-3.2s3.3,1.4,3.3,3.2C17.7,7.2,16.3,8.6,14.5,8.6z"/>
</svg>
