<?xml version="1.0" encoding="utf-8"?>
<!-- Generator: Adobe Illustrator 18.0.0, SVG Export Plug-In . SVG Version: 6.00 Build 0)  -->
<!DOCTYPE svg PUBLIC "-//W3C//DTD SVG 1.1//EN" "http://www.w3.org/Graphics/SVG/1.1/DTD/svg11.dtd">
<svg version="1.1" id="Warstwa_1" xmlns="http://www.w3.org/2000/svg" xmlns:xlink="http://www.w3.org/1999/xlink" x="0px" y="0px"
	 viewBox="0 0 137.2 60.6" enable-background="new 0 0 137.2 60.6" xml:space="preserve">
<g>
	<defs>
		<rect id="SVGID_1_" y="0" width="137.2" height="60.6"/>
	</defs>
	<clipPath id="SVGID_2_">
		<use xlink:href="#SVGID_1_"  overflow="visible"/>
	</clipPath>
	<path clip-path="url(#SVGID_2_)" fill="#00539F" d="M10.6,30.4h16.7c0.1,0,0.2,0.1,0,0.2c-1.9,0.8-4.6,3.4-4.6,3.4
		c-1.9,1.7-3.4,2.7-6.5,2.7h-16c-0.1,0-0.1-0.1,0-0.1c1.8-0.9,4.4-3.5,4.4-3.5C5.7,31.9,7.9,30.4,10.6,30.4"/>
	<path clip-path="url(#SVGID_2_)" fill="#00539F" d="M120.4,30.4h16.7c0.1,0,0.2,0.1,0,0.2c-1.9,0.8-4.6,3.4-4.6,3.4
		c-1.9,1.7-3.4,2.7-6.5,2.7h-16c-0.1,0-0.1-0.1,0-0.1c1.8-0.9,4.4-3.5,4.4-3.5C115.4,31.9,117.6,30.4,120.4,30.4"/>
	<path clip-path="url(#SVGID_2_)" fill="#00539F" d="M38.1,30.4h16.7c0.1,0,0.2,0.1,0,0.2c-1.9,0.8-4.6,3.4-4.6,3.4
		c-1.9,1.7-3.4,2.7-6.5,2.7h-16c-0.1,0-0.1-0.1,0-0.1c1.8-0.9,4.4-3.5,4.4-3.5C33.1,31.9,35.3,30.4,38.1,30.4"/>
	<path clip-path="url(#SVGID_2_)" fill="#00539F" d="M65.5,30.4h16.7c0.1,0,0.2,0.1,0,0.2c-1.9,0.8-4.6,3.4-4.6,3.4
		c-1.9,1.7-3.3,2.7-6.5,2.7h-16c-0.1,0-0.1-0.1,0-0.1c1.8-0.9,4.4-3.5,4.4-3.5C60.6,31.9,62.8,30.4,65.5,30.4"/>
	<path clip-path="url(#SVGID_2_)" fill="#00539F" d="M92.9,30.4h16.7c0.1,0,0.2,0.1,0,0.2c-1.9,0.8-4.6,3.4-4.6,3.4
		c-1.9,1.7-3.4,2.7-6.5,2.7h-16c-0.1,0-0.1-0.1,0-0.1c1.8-0.9,4.4-3.5,4.4-3.5C88,31.9,90.2,30.4,92.9,30.4"/>
	<path clip-path="url(#SVGID_2_)" fill="#ED1C24" d="M136.2,12.2c0,7.4-6.3,12.5-15.4,12.5c-8.6,0-14.3-4.8-14.3-12
		c0-7.4,6.4-12.6,15.5-12.6C130.5,0.1,136.2,5,136.2,12.2 M113.5,12.3c0,4.8,3.1,8.8,7.9,8.8c4.7,0,7.9-3.9,7.9-8.8
		c0-4.8-3.2-8.8-7.9-8.8C116.5,3.6,113.5,7.5,113.5,12.3 M77.1,1.6C73.9,0.6,69.7,0,66.5,0C60.7,0,55,1.7,55,7.5
		c0,10,17.5,4.7,17.5,10.9c0,2-3.1,2.8-5.6,2.8c-4.5,0-7.6-0.7-11.6-3v5c2.9,1,7,1.4,11.3,1.4c6.1,0,11.7-1.6,11.7-7.5
		c0-10.5-17.5-5.8-17.5-10.9c0-2.1,2.8-2.8,5.3-2.8c4.1,0,8.6,1.2,11.1,3.5L77.1,1.6L77.1,1.6z M47.2,9.8c-1.6,0.5-4.4,0.7-6,0.7
		h-2.3V4.3H42c2.8,0,7.7,0.6,9.5,2.1V0.8H31.3c0.9,1.2,1.1,1.8,1.1,4.1v14.8c0,2.2-0.2,2.9-1.1,4.1h21.5v-5.6
		c-3,2.1-8.6,2.1-10.9,2.1h-3.1v-6.4h2.3c1.6,0,4.4,0.2,6,0.7V9.8H47.2z M18.3,4.2c3.9,0,8.6,0.7,10.5,2.3V0.8H1.1v5.7
		c2-1.5,6.1-2.1,10.6-2.2v15.4c0,2.2-0.2,2.9-1.2,4.1h8.9c-1-1.2-1.1-1.8-1.1-4.1V4.2z M97.5,0.1c2.6,0,5.1,0.2,7.2,0.6v6
		c-2-1.9-4.4-3-7.5-3c-5.6,0-9.6,3.6-9.6,8.6c0,5.1,3.9,8.6,9.5,8.6c2.9,0,5.6-0.9,7.9-3.4v6c-3.2,0.8-6,1.2-9.1,1.2
		C86.3,24.7,80,20,80,12.9C80,5.2,86.9,0.1,97.5,0.1"/>
	<path clip-path="url(#SVGID_2_)" fill="#00539F" d="M7.9,47.8l-1.2,1.4c-0.5-0.3-1-0.4-1.5-0.4s-1,0.1-1.5,0.3
		c-0.5,0.2-0.8,0.6-1.1,1c-0.3,0.5-0.5,1-0.5,1.6c0,0.6,0.2,1.2,0.5,1.7c0.3,0.5,0.7,0.8,1.2,1c0.4,0.2,0.9,0.3,1.5,0.2
		c0.6,0,1.1-0.2,1.5-0.6L8,55.4c-0.9,0.8-2,1.1-3.1,1.1c-1.3,0-2.5-0.5-3.5-1.4c-1-1-1.4-2.1-1.4-3.5c0-1.4,0.5-2.5,1.4-3.5
		c1-1,2.1-1.4,3.5-1.4C6,46.8,7,47.1,7.9,47.8"/>
	<path clip-path="url(#SVGID_2_)" fill="#00539F" d="M9.4,50.6h1.7v5.8H9.4V50.6z M9.4,47.9h1.7v1.9H9.4V47.9z"/>
	<path clip-path="url(#SVGID_2_)" fill="#00539F" d="M13.8,53h2.8c-0.1-0.3-0.2-0.5-0.4-0.7c-0.3-0.3-0.6-0.5-1-0.5
		c-0.4,0-0.7,0.2-1,0.5C14,52.5,13.9,52.7,13.8,53 M16.2,54.6l1.3,0.8c-0.6,0.7-1.4,1.1-2.3,1.1c-0.8,0-1.6-0.3-2.2-0.9
		c-0.6-0.6-0.9-1.3-0.9-2.2c0-0.9,0.3-1.6,0.9-2.2c0.6-0.6,1.3-0.9,2.2-0.9c0.9,0,1.6,0.3,2.2,0.9c0.6,0.6,0.9,1.3,0.9,2.2
		c0,0.2,0,0.4-0.1,0.6h-4.3l0.3,0.6c0.3,0.3,0.6,0.5,1,0.5C15.5,55.1,15.9,54.9,16.2,54.6"/>
	<path clip-path="url(#SVGID_2_)" fill="#00539F" d="M18.7,55.5l1.1-1.1c0.3,0.3,0.6,0.5,0.9,0.7c0.3,0.1,0.6,0.2,0.9,0.1
		c0.2-0.1,0.4-0.2,0.4-0.5c0-0.1,0-0.2-0.1-0.3c-0.1-0.1-0.2-0.2-0.3-0.2s-0.2-0.1-0.4-0.2c-0.7-0.2-1.1-0.4-1.4-0.7
		c-0.3-0.2-0.5-0.6-0.5-1.1s0.2-0.9,0.6-1.3c0.4-0.3,0.9-0.5,1.5-0.5c0.5,0,0.9,0.1,1.2,0.2c0.3,0.1,0.7,0.3,1.1,0.5l-0.8,1.2
		c-0.4-0.3-0.7-0.4-1-0.5c-0.3-0.1-0.5-0.1-0.7,0c-0.2,0.1-0.3,0.2-0.3,0.4v0.2c0,0.1,0.1,0.1,0.2,0.2c0.1,0,0.2,0.1,0.3,0.1
		s0.2,0.1,0.4,0.1c0.2,0.1,0.3,0.1,0.4,0.1c0.5,0.1,0.8,0.4,1.1,0.6c0.3,0.3,0.5,0.7,0.5,1.1c0,0.5-0.2,0.9-0.6,1.3
		c-0.4,0.4-0.9,0.6-1.5,0.6C20.3,56.5,19.4,56.2,18.7,55.5"/>
	<polygon clip-path="url(#SVGID_2_)" fill="#00539F" points="24.6,56 27.5,52 24.7,52 24.7,50.6 30.1,50.6 30.1,50.9 27.2,54.9 
		29.9,54.9 29.9,56.4 24.6,56.4 	"/>
	<path clip-path="url(#SVGID_2_)" fill="#00539F" d="M35.2,55.5l1.1-1.1c0.3,0.3,0.6,0.5,0.9,0.7c0.3,0.1,0.6,0.2,0.9,0.1
		c0.2-0.1,0.4-0.2,0.4-0.5c0-0.1,0-0.2-0.1-0.3c-0.1-0.1-0.2-0.2-0.3-0.2c-0.1,0-0.2-0.1-0.4-0.2c-0.7-0.2-1.1-0.4-1.4-0.7
		c-0.3-0.2-0.5-0.6-0.5-1.1s0.2-0.9,0.6-1.3c0.4-0.3,0.9-0.5,1.5-0.5c0.5,0,0.9,0.1,1.2,0.2c0.3,0.1,0.7,0.3,1.1,0.5l-1,1.2
		c-0.4-0.3-0.7-0.4-1-0.5c-0.3-0.1-0.5-0.1-0.7,0c-0.2,0.1-0.3,0.2-0.3,0.4v0.2c0,0.1,0.1,0.1,0.2,0.2c0.1,0,0.2,0.1,0.3,0.1
		c0.1,0,0.2,0.1,0.4,0.1c0.2,0.1,0.3,0.1,0.4,0.1c0.5,0.1,0.8,0.4,1.1,0.6c0.3,0.3,0.5,0.7,0.5,1.1c0,0.5-0.2,0.9-0.6,1.3
		c-0.4,0.4-0.9,0.6-1.5,0.6C36.8,56.5,35.9,56.2,35.2,55.5"/>
	<path clip-path="url(#SVGID_2_)" fill="#00539F" d="M40.9,50.6h1.7v5.8h-1.7V50.6z M40.9,47.9h1.7v1.9h-1.7V47.9z"/>
	<polygon clip-path="url(#SVGID_2_)" fill="#00539F" points="57.6,50.6 59,50.6 59,52.2 57.6,52.2 57.6,56.4 55.9,56.4 55.9,52.2 
		54.7,52.2 54.7,50.6 55.9,50.6 55.9,48.4 57.6,48.4 	"/>
	<polygon clip-path="url(#SVGID_2_)" fill="#00539F" points="59.7,60.6 62.1,56 59.3,50.6 61.2,50.6 63.1,53.8 64.9,50.6 66.8,50.6 
		61.6,60.6 	"/>
	<path clip-path="url(#SVGID_2_)" fill="#00539F" d="M68.8,50.6l0.3,0.5c0.5-0.4,1-0.6,1.5-0.6c0.8,0,1.5,0.4,2,1.1
		c0.2-0.3,0.5-0.6,0.9-0.8s0.7-0.3,1.1-0.3c0.7,0,1.3,0.3,1.8,0.9c0.5,0.6,0.8,1.3,0.8,2.2v2.9h-1.5v-2.9c0-0.4-0.1-0.8-0.4-1.1
		c-0.2-0.3-0.6-0.5-0.9-0.5c-0.4,0-0.7,0.2-0.9,0.5c-0.2,0.3-0.4,0.6-0.4,1v3h-1.5v-2.9c0-0.4-0.1-0.8-0.4-1.1
		C71,52.2,70.6,52,70.3,52c-0.3,0-0.6,0.1-0.8,0.3s-0.4,0.5-0.5,0.8v3.3h-1.6v-5.8H68.8z"/>
	<polygon clip-path="url(#SVGID_2_)" fill="#00539F" points="79.1,54.5 81,54.5 79.6,58.2 78.7,58.2 	"/>
	<path clip-path="url(#SVGID_2_)" fill="#00539F" d="M91,51l-0.8,1.4C90,52.2,89.7,52,89.4,52c-0.3-0.1-0.6,0-0.9,0.1
		c-0.3,0.1-0.5,0.3-0.7,0.5c-0.2,0.3-0.3,0.6-0.3,0.9c0,0.3,0.1,0.6,0.3,0.9c0.2,0.3,0.4,0.4,0.7,0.6c0.3,0.1,0.6,0.2,0.9,0.1
		c0.3,0,0.6-0.2,0.9-0.4l0.8,1.3c-0.6,0.4-1.2,0.6-1.9,0.6c-0.9,0-1.6-0.3-2.3-0.9c-0.6-0.6-0.9-1.3-0.9-2.2c0-0.8,0.3-1.6,0.9-2.2
		c0.6-0.6,1.4-0.9,2.3-0.9C89.7,50.4,90.4,50.6,91,51"/>
	<path clip-path="url(#SVGID_2_)" fill="#00539F" d="M95.8,54.6c0.3-0.3,0.4-0.7,0.4-1.1c0-0.4-0.1-0.8-0.4-1.1
		c-0.3-0.3-0.7-0.5-1.1-0.5c-0.4,0-0.8,0.2-1.1,0.5c-0.3,0.3-0.5,0.7-0.5,1.1c0,0.4,0.2,0.8,0.5,1.1c0.3,0.3,0.6,0.5,1.1,0.5
		C95.1,55.1,95.5,54.9,95.8,54.6 M94.7,50.4c0.9,0,1.7,0.3,2.3,0.9c0.6,0.6,0.9,1.3,0.9,2.2c0,0.9-0.3,1.6-0.9,2.2s-1.4,0.9-2.3,0.9
		c-0.9,0-1.6-0.3-2.3-0.9c-0.6-0.6-0.9-1.3-0.9-2.2c0-0.9,0.3-1.6,0.9-2.2C93.1,50.7,93.8,50.4,94.7,50.4"/>
	<path clip-path="url(#SVGID_2_)" fill="#00539F" d="M104.6,53.5c0,0.4,0.1,0.8,0.4,1.1c0.3,0.3,0.6,0.5,1.1,0.5
		c0.4,0,0.8-0.2,1.1-0.5c0.3-0.3,0.4-0.7,0.4-1.1c0-0.4-0.1-0.8-0.4-1.1c-0.3-0.3-0.6-0.5-1.1-0.5c-0.4,0-0.8,0.2-1.1,0.5
		C104.8,52.7,104.6,53.1,104.6,53.5 M108.1,56.4v-0.7c-0.6,0.6-1.3,0.9-2.2,0.9c-0.9,0-1.6-0.3-2.2-0.9c-0.6-0.6-0.9-1.3-0.9-2.2
		c0-0.9,0.3-1.6,0.9-2.2c0.6-0.6,1.3-0.9,2.2-0.9c0.8,0,1.6,0.3,2.2,0.9v-4.9h1.6v10H108.1z"/>
	<path clip-path="url(#SVGID_2_)" fill="#00539F" d="M114.9,54.6c0.3-0.3,0.4-0.7,0.4-1.1c0-0.4-0.1-0.8-0.4-1.1
		c-0.3-0.3-0.7-0.5-1.1-0.5c-0.4,0-0.8,0.2-1.1,0.5c-0.3,0.3-0.5,0.7-0.5,1.1c0,0.4,0.2,0.8,0.5,1.1c0.3,0.3,0.6,0.5,1.1,0.5
		C114.2,55.1,114.6,54.9,114.9,54.6 M113.8,50.4c0.9,0,1.7,0.3,2.3,0.9c0.6,0.6,0.9,1.3,0.9,2.2c0,0.9-0.3,1.6-0.9,2.2
		c-0.6,0.6-1.4,0.9-2.3,0.9c-0.9,0-1.6-0.3-2.3-0.9c-0.6-0.6-0.9-1.3-0.9-2.2c0-0.9,0.3-1.6,0.9-2.2
		C112.1,50.7,112.9,50.4,113.8,50.4"/>
	<path clip-path="url(#SVGID_2_)" fill="#00539F" d="M122.7,54.6c0.3-0.3,0.4-0.7,0.4-1.1c0-0.4-0.1-0.8-0.4-1.1
		c-0.3-0.3-0.6-0.5-1.1-0.5c-0.4,0-0.8,0.2-1.1,0.5c-0.3,0.3-0.4,0.7-0.4,1.1c0,0.4,0.1,0.8,0.4,1.1c0.3,0.3,0.6,0.5,1.1,0.5
		C122,55,122.4,54.9,122.7,54.6 M119.7,46.4v4.9c0.6-0.6,1.3-0.9,2.2-0.9c0.8,0,1.6,0.3,2.2,0.9c0.6,0.6,0.9,1.3,0.9,2.2
		c0,0.9-0.3,1.6-0.9,2.2c-0.6,0.6-1.3,0.9-2.2,0.9c-0.8,0-1.6-0.3-2.2-0.9v0.7H118v-10H119.7z"/>
	<path clip-path="url(#SVGID_2_)" fill="#00539F" d="M127.2,50.6l0.2,0.7c0.4-0.5,1.1-0.8,2-0.8c0.4,0,0.7,0.1,1,0.2l-0.7,1.5
		c-0.5-0.2-0.9-0.2-1.4,0c-0.4,0.2-0.7,0.6-0.8,1.1v3.2h-1.7v-5.9H127.2z"/>
	<path clip-path="url(#SVGID_2_)" fill="#00539F" d="M132.4,53h2.8c-0.1-0.3-0.2-0.5-0.4-0.7c-0.3-0.3-0.6-0.5-1-0.5
		c-0.4,0-0.7,0.2-1,0.5C132.6,52.5,132.5,52.7,132.4,53 M134.8,54.6l1.3,0.8c-0.6,0.7-1.4,1.1-2.3,1.1c-0.8,0-1.6-0.3-2.2-0.9
		c-0.6-0.6-0.9-1.3-0.9-2.2c0-0.9,0.3-1.6,0.9-2.2c0.6-0.6,1.3-0.9,2.2-0.9c0.9,0,1.6,0.3,2.2,0.9c0.6,0.6,0.9,1.3,0.9,2.2
		c0,0.2,0,0.4-0.1,0.6h-4.3c0.1,0.2,0.2,0.4,0.3,0.6c0.3,0.3,0.6,0.5,1,0.5C134.2,55.1,134.5,54.9,134.8,54.6"/>
	<path clip-path="url(#SVGID_2_)" fill="#00539F" d="M45.6,52.3c0.3-0.3,0.6-0.5,1-0.5c0.4,0,0.7,0.2,1,0.5c0.2,0.2,0.3,0.4,0.4,0.7
		h-2.8C45.4,52.7,45.5,52.5,45.6,52.3 M46.8,58.6c-0.3-0.3-0.2-1,0.3-2.1c0.7-0.1,1.3-0.5,1.8-1l-1.2-0.9c-0.3,0.3-0.6,0.4-1,0.4
		c-0.4,0-0.8-0.2-1-0.5c-0.1-0.2-0.3-0.3-0.3-0.6h4.3c0-0.2,0.1-0.4,0.1-0.6c0-0.9-0.3-1.6-0.9-2.2s-1.3-0.9-2.2-0.9
		c-0.9,0-1.6,0.3-2.2,0.9c-0.6,0.6-0.9,1.3-0.9,2.2c0,0.7,0.2,1.4,0.7,2c0.5,0.6,1.1,0.9,1.8,1.1c-0.5,0.6-0.7,1.2-0.7,1.9
		c0,0.6,0.2,1.1,0.6,1.4c0.4,0.4,0.9,0.6,1.5,0.6h0.6c0.2,0,0.3,0,0.4-0.1h0.1v-1.4C47.7,59,47.2,58.9,46.8,58.6"/>
</g>
</svg>
