<svg xmlns="http://www.w3.org/2000/svg" viewBox="0 0 35 11"><path fill="#FFF" d="M19.2.2L23 5.5l-3.8 5.2h2.9l2.3-3.2 2.3 3.2h2.9L22.1.2h-2.9zm12.9 0l-2.3 3.2L27.5.2h-2.9l7.6 10.5H35l-3.8-5.2L35 .2h-2.9zM8 3.8C8 2.2 6.9.8 5.4.2 5 .1 4.6 0 4.1 0H0v10.8h2.4V7.7h1.8l2.3 3.1h2.9l-2.9-4C7.5 6.1 8 5 8 3.8zM4.6 5.2c-.2 0-.4.1-.6.1H2.4v-3h1.7c.8 0 1.5.6 1.5 1.5 0 .6-.4 1.2-1 1.4zm11.5-5C15.6.1 15 0 14.5 0c-.6 0-1.2.1-1.7.2-2.3.7-4 2.8-4 5.3s1.7 4.6 4 5.3c.5.1 1.1.2 1.7.2.6 0 1.2-.1 1.7-.2 2.3-.7 4-2.8 4-5.3S18.4.9 16.1.2zm-1.6 8.4c-1.8 0-3.3-1.4-3.3-3.2 0-1.7 1.5-3.2 3.3-3.2s3.3 1.4 3.3 3.2c-.1 1.8-1.5 3.2-3.3 3.2z"/></svg>