<svg xmlns="http://www.w3.org/2000/svg" xmlns:xlink="http://www.w3.org/1999/xlink" viewBox="0 0 137.2 60.6"><defs><path id="a" d="M0 0h137.2v60.6H0z"/></defs><clipPath id="b"><use xlink:href="#a" overflow="visible"/></clipPath><path clip-path="url(#b)" fill="#00539F" d="M10.6 30.4h16.7c.1 0 .2.1 0 .2-1.9.8-4.6 3.4-4.6 3.4-1.9 1.7-3.4 2.7-6.5 2.7H.2c-.1 0-.1-.1 0-.1 1.8-.9 4.4-3.5 4.4-3.5 1.1-1.2 3.3-2.7 6-2.7m109.8 0h16.7c.1 0 .2.1 0 .2-1.9.8-4.6 3.4-4.6 3.4-1.9 1.7-3.4 2.7-6.5 2.7h-16c-.1 0-.1-.1 0-.1 1.8-.9 4.4-3.5 4.4-3.5 1-1.2 3.2-2.7 6-2.7m-82.3 0h16.7c.1 0 .2.1 0 .2-1.9.8-4.6 3.4-4.6 3.4-1.9 1.7-3.4 2.7-6.5 2.7h-16c-.1 0-.1-.1 0-.1 1.8-.9 4.4-3.5 4.4-3.5 1-1.2 3.2-2.7 6-2.7m27.4 0h16.7c.1 0 .2.1 0 .2-1.9.8-4.6 3.4-4.6 3.4-1.9 1.7-3.3 2.7-6.5 2.7h-16c-.1 0-.1-.1 0-.1 1.8-.9 4.4-3.5 4.4-3.5 1.1-1.2 3.3-2.7 6-2.7m27.4 0h16.7c.1 0 .2.1 0 .2-1.9.8-4.6 3.4-4.6 3.4-1.9 1.7-3.4 2.7-6.5 2.7h-16c-.1 0-.1-.1 0-.1 1.8-.9 4.4-3.5 4.4-3.5 1.1-1.2 3.3-2.7 6-2.7"/><path clip-path="url(#b)" fill="#ED1C24" d="M136.2 12.2c0 7.4-6.3 12.5-15.4 12.5-8.6 0-14.3-4.8-14.3-12 0-7.4 6.4-12.6 15.5-12.6 8.5 0 14.2 4.9 14.2 12.1m-22.7.1c0 4.8 3.1 8.8 7.9 8.8 4.7 0 7.9-3.9 7.9-8.8 0-4.8-3.2-8.8-7.9-8.8-4.9.1-7.9 4-7.9 8.8M77.1 1.6C73.9.6 69.7 0 66.5 0 60.7 0 55 1.7 55 7.5c0 10 17.5 4.7 17.5 10.9 0 2-3.1 2.8-5.6 2.8-4.5 0-7.6-.7-11.6-3v5c2.9 1 7 1.4 11.3 1.4 6.1 0 11.7-1.6 11.7-7.5 0-10.5-17.5-5.8-17.5-10.9 0-2.1 2.8-2.8 5.3-2.8 4.1 0 8.6 1.2 11.1 3.5l-.1-5.3zM47.2 9.8c-1.6.5-4.4.7-6 .7h-2.3V4.3H42c2.8 0 7.7.6 9.5 2.1V.8H31.3c.9 1.2 1.1 1.8 1.1 4.1v14.8c0 2.2-.2 2.9-1.1 4.1h21.5v-5.6c-3 2.1-8.6 2.1-10.9 2.1h-3.1v-6.4h2.3c1.6 0 4.4.2 6 .7V9.8h.1zM18.3 4.2c3.9 0 8.6.7 10.5 2.3V.8H1.1v5.7c2-1.5 6.1-2.1 10.6-2.2v15.4c0 2.2-.2 2.9-1.2 4.1h8.9c-1-1.2-1.1-1.8-1.1-4.1V4.2zM97.5.1c2.6 0 5.1.2 7.2.6v6c-2-1.9-4.4-3-7.5-3-5.6 0-9.6 3.6-9.6 8.6 0 5.1 3.9 8.6 9.5 8.6 2.9 0 5.6-.9 7.9-3.4v6c-3.2.8-6 1.2-9.1 1.2C86.3 24.7 80 20 80 12.9 80 5.2 86.9.1 97.5.1"/><path clip-path="url(#b)" fill="#00539F" d="M7.9 47.8l-1.2 1.4c-.5-.3-1-.4-1.5-.4s-1 .1-1.5.3c-.5.2-.8.6-1.1 1-.3.5-.5 1-.5 1.6 0 .6.2 1.2.5 1.7s.7.8 1.2 1c.4.2.9.3 1.5.2.6 0 1.1-.2 1.5-.6L8 55.4c-.9.8-2 1.1-3.1 1.1-1.3 0-2.5-.5-3.5-1.4-1-1-1.4-2.1-1.4-3.5s.5-2.5 1.4-3.5c1-1 2.1-1.4 3.5-1.4 1.1.1 2.1.4 3 1.1m1.5 2.8h1.7v5.8H9.4v-5.8zm0-2.7h1.7v1.9H9.4v-1.9zm4.4 5.1h2.8c-.1-.3-.2-.5-.4-.7-.3-.3-.6-.5-1-.5s-.7.2-1 .5c-.2.2-.3.4-.4.7m2.4 1.6l1.3.8c-.6.7-1.4 1.1-2.3 1.1-.8 0-1.6-.3-2.2-.9-.6-.6-.9-1.3-.9-2.2 0-.9.3-1.6.9-2.2.6-.6 1.3-.9 2.2-.9.9 0 1.6.3 2.2.9.6.6.9 1.3.9 2.2 0 .2 0 .4-.1.6h-4.3l.3.6c.3.3.6.5 1 .5.3 0 .7-.2 1-.5m2.5.9l1.1-1.1c.3.3.6.5.9.7.3.1.6.2.9.1.2-.1.4-.2.4-.5 0-.1 0-.2-.1-.3-.1-.1-.2-.2-.3-.2s-.2-.1-.4-.2c-.7-.2-1.1-.4-1.4-.7-.3-.2-.5-.6-.5-1.1s.2-.9.6-1.3c.4-.3.9-.5 1.5-.5.5 0 .9.1 1.2.2.3.1.7.3 1.1.5l-.8 1.2c-.4-.3-.7-.4-1-.5-.3-.1-.5-.1-.7 0-.2.1-.3.2-.3.4v.2c0 .1.1.1.2.2.1 0 .2.1.3.1s.2.1.4.1c.2.1.3.1.4.1.5.1.8.4 1.1.6.3.3.5.7.5 1.1 0 .5-.2.9-.6 1.3-.4.4-.9.6-1.5.6-1.4 0-2.3-.3-3-1m5.9.5l2.9-4h-2.8v-1.4h5.4v.3l-2.9 4h2.7v1.5h-5.3zm10.6-.5l1.1-1.1c.3.3.6.5.9.7.3.1.6.2.9.1.2-.1.4-.2.4-.5 0-.1 0-.2-.1-.3-.1-.1-.2-.2-.3-.2-.1 0-.2-.1-.4-.2-.7-.2-1.1-.4-1.4-.7-.3-.2-.5-.6-.5-1.1s.2-.9.6-1.3c.4-.3.9-.5 1.5-.5.5 0 .9.1 1.2.2.3.1.7.3 1.1.5l-1 1.2c-.4-.3-.7-.4-1-.5-.3-.1-.5-.1-.7 0-.2.1-.3.2-.3.4v.2c0 .1.1.1.2.2.1 0 .2.1.3.1.1 0 .2.1.4.1.2.1.3.1.4.1.5.1.8.4 1.1.6.3.3.5.7.5 1.1 0 .5-.2.9-.6 1.3-.4.4-.9.6-1.5.6-1.2 0-2.1-.3-2.8-1m5.7-4.9h1.7v5.8h-1.7v-5.8zm0-2.7h1.7v1.9h-1.7v-1.9zm16.7 2.7H59v1.6h-1.4v4.2h-1.7v-4.2h-1.2v-1.6h1.2v-2.2h1.7zm2.1 10l2.4-4.6-2.8-5.4h1.9l1.9 3.2 1.8-3.2h1.9l-5.2 10zm9.1-10l.3.5c.5-.4 1-.6 1.5-.6.8 0 1.5.4 2 1.1.2-.3.5-.6.9-.8s.7-.3 1.1-.3c.7 0 1.3.3 1.8.9.5.6.8 1.3.8 2.2v2.9h-1.5v-2.9c0-.4-.1-.8-.4-1.1-.2-.3-.6-.5-.9-.5-.4 0-.7.2-.9.5-.2.3-.4.6-.4 1v3h-1.5v-2.9c0-.4-.1-.8-.4-1.1-.2-.3-.6-.5-.9-.5-.3 0-.6.1-.8.3s-.4.5-.5.8v3.3h-1.6v-5.8h1.4zm10.3 3.9H81l-1.4 3.7h-.9zM91 51l-.8 1.4c-.2-.2-.5-.4-.8-.4-.3-.1-.6 0-.9.1-.3.1-.5.3-.7.5-.2.3-.3.6-.3.9 0 .3.1.6.3.9.2.3.4.4.7.6.3.1.6.2.9.1.3 0 .6-.2.9-.4l.8 1.3c-.6.4-1.2.6-1.9.6-.9 0-1.6-.3-2.3-.9-.6-.6-.9-1.3-.9-2.2 0-.8.3-1.6.9-2.2.6-.6 1.4-.9 2.3-.9.5 0 1.2.2 1.8.6m4.8 3.6c.3-.3.4-.7.4-1.1 0-.4-.1-.8-.4-1.1-.3-.3-.7-.5-1.1-.5-.4 0-.8.2-1.1.5-.3.3-.5.7-.5 1.1 0 .4.2.8.5 1.1.3.3.6.5 1.1.5.4 0 .8-.2 1.1-.5m-1.1-4.2c.9 0 1.7.3 2.3.9.6.6.9 1.3.9 2.2 0 .9-.3 1.6-.9 2.2s-1.4.9-2.3.9c-.9 0-1.6-.3-2.3-.9-.6-.6-.9-1.3-.9-2.2 0-.9.3-1.6.9-2.2.7-.6 1.4-.9 2.3-.9m9.9 3.1c0 .4.1.8.4 1.1.3.3.6.5 1.1.5.4 0 .8-.2 1.1-.5.3-.3.4-.7.4-1.1 0-.4-.1-.8-.4-1.1-.3-.3-.6-.5-1.1-.5-.4 0-.8.2-1.1.5-.2.3-.4.7-.4 1.1m3.5 2.9v-.7c-.6.6-1.3.9-2.2.9-.9 0-1.6-.3-2.2-.9-.6-.6-.9-1.3-.9-2.2 0-.9.3-1.6.9-2.2.6-.6 1.3-.9 2.2-.9.8 0 1.6.3 2.2.9v-4.9h1.6v10h-1.6zm6.8-1.8c.3-.3.4-.7.4-1.1 0-.4-.1-.8-.4-1.1-.3-.3-.7-.5-1.1-.5-.4 0-.8.2-1.1.5-.3.3-.5.7-.5 1.1 0 .4.2.8.5 1.1.3.3.6.5 1.1.5.4 0 .8-.2 1.1-.5m-1.1-4.2c.9 0 1.7.3 2.3.9.6.6.9 1.3.9 2.2 0 .9-.3 1.6-.9 2.2-.6.6-1.4.9-2.3.9-.9 0-1.6-.3-2.3-.9-.6-.6-.9-1.3-.9-2.2 0-.9.3-1.6.9-2.2.6-.6 1.4-.9 2.3-.9m8.9 4.2c.3-.3.4-.7.4-1.1 0-.4-.1-.8-.4-1.1-.3-.3-.6-.5-1.1-.5-.4 0-.8.2-1.1.5-.3.3-.4.7-.4 1.1 0 .4.1.8.4 1.1.3.3.6.5 1.1.5.4-.1.8-.2 1.1-.5m-3-8.2v4.9c.6-.6 1.3-.9 2.2-.9.8 0 1.6.3 2.2.9.6.6.9 1.3.9 2.2 0 .9-.3 1.6-.9 2.2-.6.6-1.3.9-2.2.9-.8 0-1.6-.3-2.2-.9v.7H118v-10h1.7zm7.5 4.2l.2.7c.4-.5 1.1-.8 2-.8.4 0 .7.1 1 .2l-.7 1.5c-.5-.2-.9-.2-1.4 0-.4.2-.7.6-.8 1.1v3.2h-1.7v-5.9h1.4zm5.2 2.4h2.8c-.1-.3-.2-.5-.4-.7-.3-.3-.6-.5-1-.5s-.7.2-1 .5c-.2.2-.3.4-.4.7m2.4 1.6l1.3.8c-.6.7-1.4 1.1-2.3 1.1-.8 0-1.6-.3-2.2-.9-.6-.6-.9-1.3-.9-2.2 0-.9.3-1.6.9-2.2.6-.6 1.3-.9 2.2-.9.9 0 1.6.3 2.2.9.6.6.9 1.3.9 2.2 0 .2 0 .4-.1.6h-4.3l.3.6c.3.3.6.5 1 .5s.7-.2 1-.5m-89.2-2.3c.3-.3.6-.5 1-.5s.7.2 1 .5c.2.2.3.4.4.7h-2.8c.2-.3.3-.5.4-.7m1.2 6.3c-.3-.3-.2-1 .3-2.1.7-.1 1.3-.5 1.8-1l-1.2-.9c-.3.3-.6.4-1 .4s-.8-.2-1-.5c-.1-.2-.3-.3-.3-.6h4.3c0-.2.1-.4.1-.6 0-.9-.3-1.6-.9-2.2s-1.3-.9-2.2-.9c-.9 0-1.6.3-2.2.9-.6.6-.9 1.3-.9 2.2 0 .7.2 1.4.7 2 .5.6 1.1.9 1.8 1.1-.5.6-.7 1.2-.7 1.9 0 .6.2 1.1.6 1.4.4.4.9.6 1.5.6h.6c.2 0 .3 0 .4-.1h.1v-1.4c-.9.2-1.4.1-1.8-.2"/></svg>