<?xml version="1.0" encoding="utf-8"?>
<!-- Generator: Adobe Illustrator 18.0.0, SVG Export Plug-In . SVG Version: 6.00 Build 0)  -->
<!DOCTYPE svg PUBLIC "-//W3C//DTD SVG 1.1//EN" "http://www.w3.org/Graphics/SVG/1.1/DTD/svg11.dtd">
<svg version="1.1" id="Warstwa_1" xmlns="http://www.w3.org/2000/svg" xmlns:xlink="http://www.w3.org/1999/xlink" x="0px" y="0px"
	 viewBox="0 0 16 16" enable-background="new 0 0 16 16" xml:space="preserve">
<g>
	<path d="M9,0v2c2.8,0.5,5,3,5,5.9c0,0.7-0.1,1.4-0.4,2.1l1.8,1c0.4-1,0.6-2,0.6-3.1C16,3.9,12.9,0.5,9,0z M8,14
		c-1.8,0-3.5-0.8-4.6-2.2l-1.7,1C3.1,14.8,5.4,16,8,16c2.6,0,4.9-1.3,6.4-3.2l-1.8-1C11.5,13.1,9.9,14,8,14z M2,8C2,5,4.2,2.5,7,2V0
		C3.1,0.5,0,3.9,0,8c0,1.1,0.2,2.2,0.6,3.2l1.7-1C2.1,9.4,2,8.7,2,8z"/>
</g>
</svg>
