<?xml version="1.0" encoding="utf-8"?>
<!-- Generator: Adobe Illustrator 18.0.0, SVG Export Plug-In . SVG Version: 6.00 Build 0)  -->
<!DOCTYPE svg PUBLIC "-//W3C//DTD SVG 1.1//EN" "http://www.w3.org/Graphics/SVG/1.1/DTD/svg11.dtd">
<svg version="1.1" id="Warstwa_1" xmlns="http://www.w3.org/2000/svg" xmlns:xlink="http://www.w3.org/1999/xlink" x="0px" y="0px"
	 viewBox="0 0 30 27" enable-background="new 0 0 30 27" xml:space="preserve">
<g>
	<path d="M28,2v1.1c0,1-0.4,2-1.1,2.7l-7.5,7.2c-1.5,1.4-2.4,3.5-2.4,5.5V25h-4v-6.6c0-2.1-0.9-4.1-2.4-5.5L3.1,5.7
		C2.4,5,2,4.1,2,3.1V2h5.5H15h7.5H28 M30,0h-7.5H15H7.5H0v3.1c0,1.5,0.6,3,1.8,4.1l7.5,7.2c1.1,1.1,1.8,2.6,1.8,4.1V27h8v-8.6
		c0-1.5,0.6-3,1.8-4.1l7.5-7.2C29.4,6.1,30,4.6,30,3.1V0L30,0z"/>
	<circle cx="15" cy="9" r="2"/>
	<circle cx="11" cy="6" r="2"/>
	<circle cx="19" cy="6" r="2"/>
</g>
</svg>
