<?xml version="1.0" encoding="utf-8"?>
<!-- Generator: Adobe Illustrator 18.0.0, SVG Export Plug-In . SVG Version: 6.00 Build 0)  -->
<!DOCTYPE svg PUBLIC "-//W3C//DTD SVG 1.1//EN" "http://www.w3.org/Graphics/SVG/1.1/DTD/svg11.dtd">
<svg version="1.1" id="Warstwa_1" xmlns="http://www.w3.org/2000/svg" xmlns:xlink="http://www.w3.org/1999/xlink" x="0px" y="0px"
	 viewBox="0 0 48 37" enable-background="new 0 0 48 37" xml:space="preserve">
<g>
	<path d="M9.7,0h38.2c0.1,0,0.2,0.1,0,0.2c-1.8,0.8-4.4,3.2-4.4,3.2C41.7,5,40.3,6,37.3,6H0c0-0.1,0,0,0-0.1
		c1.7-0.8,4.2-3.3,4.2-3.3C5.1,1.4,7.2,0,9.9,0"/>
	<path d="M9.7,16h38.2c0.1,0,0.2,0.1,0,0.2c-1.8,0.8-4.4,3.2-4.4,3.2C41.7,21,40.3,22,37.3,22H0c0-0.1,0,0,0-0.1
		c1.7-0.9,4.2-3.3,4.2-3.3c0.9-1.1,3-2.6,5.7-2.6"/>
	<path d="M9.7,31h38.2c0.1,0,0.2,0.1,0,0.2c-1.8,0.8-4.4,3.2-4.4,3.2C41.7,36,40.3,37,37.3,37H0c0-0.1,0,0,0-0.1
		c1.7-0.8,4.2-3.3,4.2-3.3c0.9-1.1,3-2.6,5.7-2.6"/>
</g>
</svg>
