<svg xmlns="http://www.w3.org/2000/svg" viewBox="0 0 28 38.32"><defs><style>.cls-1{fill:#fff;}</style></defs><title>klawiaturka</title><g id="Layer_2" data-name="Layer 2"><g id="Layer_1-2" data-name="Layer 1"><rect class="cls-1" x="22" width="6" height="6" rx="1" ry="1"/><path class="cls-1" d="M28,16V12a1,1,0,0,0-1-1H23a1,1,0,0,0-1,1v4a1,1,0,0,0,1,1h4A1,1,0,0,0,28,16Zm-5,0V12h4v4Z"/><path class="cls-1" d="M28,27V23a1,1,0,0,0-1-1H23a1,1,0,0,0-1,1v4a1,1,0,0,0,1,1h4A1,1,0,0,0,28,27Zm-5,0V23h4v4Z"/><path class="cls-1" d="M17,5V1a1,1,0,0,0-1-1H12a1,1,0,0,0-1,1V5a1,1,0,0,0,1,1h4A1,1,0,0,0,17,5ZM12,5V1h4V5Z"/><path class="cls-1" d="M17,16V12a1,1,0,0,0-1-1H12a1,1,0,0,0-1,1v4a1,1,0,0,0,1,1h4A1,1,0,0,0,17,16Zm-5,0V12h4v4Z"/><path class="cls-1" d="M17,27V23a1,1,0,0,0-1-1H12a1,1,0,0,0-1,1v4a1,1,0,0,0,1,1h4A1,1,0,0,0,17,27Zm-5,0V23h4v4Z"/><path class="cls-1" d="M6,5V1A1,1,0,0,0,5,0H1A1,1,0,0,0,0,1V5A1,1,0,0,0,1,6H5A1,1,0,0,0,6,5ZM1,5V1H5V5Z"/><path class="cls-1" d="M6,16V12a1,1,0,0,0-1-1H1a1,1,0,0,0-1,1v4a1,1,0,0,0,1,1H5A1,1,0,0,0,6,16ZM1,16V12H5v4Z"/><path class="cls-1" d="M6,27V23a1,1,0,0,0-1-1H1a1,1,0,0,0-1,1v4a1,1,0,0,0,1,1H5A1,1,0,0,0,6,27ZM1,27V23H5v4Z"/><path class="cls-1" d="M13.29,37.82a1,1,0,0,0,1.73,0l1-1.66,1-1.66a1,1,0,0,0-.87-1.5H12.24a1,1,0,0,0-.87,1.5l1,1.66Z"/></g></g></svg>