<?xml version="1.0" encoding="utf-8"?>
<!-- Generator: Adobe Illustrator 18.0.0, SVG Export Plug-In . SVG Version: 6.00 Build 0)  -->
<!DOCTYPE svg PUBLIC "-//W3C//DTD SVG 1.1//EN" "http://www.w3.org/Graphics/SVG/1.1/DTD/svg11.dtd">
<svg version="1.1" id="Warstwa_1" xmlns="http://www.w3.org/2000/svg" xmlns:xlink="http://www.w3.org/1999/xlink" x="0px" y="0px"
	 viewBox="0 0 32 31.4" enable-background="new 0 0 32 31.4" xml:space="preserve">
<g>
	<path d="M10.1,31.4l0.2-6.3H4c-2.2,0-4-1.8-4-4V4c0-2.2,1.8-4,4-4h24c2.2,0,4,1.8,4,4v17.1c0,2.2-1.8,4-4,4h-7.7L10.1,31.4z M4,2
		C2.9,2,2,2.9,2,4v17.1c0,1.1,0.9,2,2,2h8.4l-0.2,4.6l7.5-4.6H28c1.1,0,2-0.9,2-2V4c0-1.1-0.9-2-2-2H4z"/>
	<rect x="8" y="7" width="16" height="2"/>
	<rect x="8" y="11" width="16" height="2"/>
	<rect x="8" y="15" width="12" height="2"/>
</g>
</svg>
