<?xml version="1.0" encoding="utf-8"?>
<!-- Generator: Adobe Illustrator 18.0.0, SVG Export Plug-In . SVG Version: 6.00 Build 0)  -->
<!DOCTYPE svg PUBLIC "-//W3C//DTD SVG 1.1//EN" "http://www.w3.org/Graphics/SVG/1.1/DTD/svg11.dtd">
<svg version="1.1" id="Warstwa_1" xmlns="http://www.w3.org/2000/svg" xmlns:xlink="http://www.w3.org/1999/xlink" x="0px" y="0px"
	 viewBox="0 0 48 48" enable-background="new 0 0 48 48" xml:space="preserve">
<path d="M25.4,0.9L31.6,14c0.2,0.5,0.7,0.8,1.2,0.9l13.8,2.1c1.3,0.2,1.9,1.9,0.9,2.9l-10,10.2c-0.4,0.4-0.6,0.9-0.5,1.5L39.4,46
	c0.2,1.4-1.2,2.4-2.3,1.8L24.8,41c-0.5-0.3-1-0.3-1.5,0l-12.3,6.8c-1.2,0.7-2.6-0.4-2.3-1.8l2.4-14.4c0.1-0.5-0.1-1.1-0.5-1.5
	l-10-10.2c-1-1-0.4-2.7,0.9-2.9L15.2,15c0.5-0.1,1-0.4,1.2-0.9l6.2-13.1C23.1-0.3,24.9-0.3,25.4,0.9z"/>
</svg>
