<?xml version="1.0" encoding="utf-8"?>
<!-- Generator: Adobe Illustrator 18.0.0, SVG Export Plug-In . SVG Version: 6.00 Build 0)  -->
<!DOCTYPE svg PUBLIC "-//W3C//DTD SVG 1.1//EN" "http://www.w3.org/Graphics/SVG/1.1/DTD/svg11.dtd">
<svg version="1.1" id="Warstwa_1" xmlns="http://www.w3.org/2000/svg" xmlns:xlink="http://www.w3.org/1999/xlink" x="0px" y="0px"
	 viewBox="0 0 48 48" enable-background="new 0 0 48 48" xml:space="preserve">
<path d="M24,0C10.7,0,0,10.7,0,24c0,13.3,10.7,24,24,24s24-10.7,24-24C48,10.7,37.3,0,24,0z M38.4,18.1L23.8,32.7l-3.6,3.6
	c-0.4,0.4-1,0.4-1.3,0l-3.6-3.6l-7.2-7.2c-0.4-0.4-0.4-1,0-1.3l3-3c0.4-0.4,1-0.4,1.3,0l6.5,6.5c0.4,0.4,1,0.4,1.3,0l14-14
	c0.4-0.4,1-0.4,1.3,0l3,3C38.8,17.1,38.8,17.7,38.4,18.1z"/>
</svg>
