<?xml version="1.0" encoding="utf-8"?>
<!-- Generator: Adobe Illustrator 18.0.0, SVG Export Plug-In . SVG Version: 6.00 Build 0)  -->
<!DOCTYPE svg PUBLIC "-//W3C//DTD SVG 1.1//EN" "http://www.w3.org/Graphics/SVG/1.1/DTD/svg11.dtd">
<svg version="1.1" id="Warstwa_1" xmlns="http://www.w3.org/2000/svg" xmlns:xlink="http://www.w3.org/1999/xlink" x="0px" y="0px"
	 viewBox="0 0 64 64" enable-background="new 0 0 64 64" xml:space="preserve">
<g>
	<g>
		<path d="M15.6,31.9c-4-0.1-7.7-1.6-10.5-4.2c-4.5-4.2-6.2-10.5-4.4-16.4c0.2-0.8,0.9-1.4,1.7-1.6c0.8-0.2,1.7,0,2.3,0.6l5.8,5.8
			c0.3,0.3,0.8,0.5,1.3,0.4l3.1-0.6c0.6-0.1,1-0.5,1.1-1.1l0.6-3.1c0.1-0.5-0.1-0.9-0.4-1.3l-5.8-5.8C9.8,4.1,9.5,3.2,9.7,2.4
			c0.2-0.8,0.8-1.5,1.6-1.7c5.7-1.7,11.8-0.2,16,4c4.6,4.6,5.9,11.6,3.4,17.6l1.6,1.6l-2.8,2.8L25.8,23l0.5-0.9
			c2.1-4,2.2-8.9-0.3-12.6C23.6,5.7,19.5,3.8,15.3,4l5.1,5.1c0.3,0.3,0.5,0.8,0.4,1.3l-1.6,7.8c-0.1,0.6-0.5,1-1.1,1.1l-7.8,1.6
			c-0.5,0.1-0.9-0.1-1.3-0.4L4,15.3c-0.2,3.5,1.1,7,3.8,9.5c2.1,2,4.9,3.1,7.9,3.1L15.6,31.9z M13.2,1.9L13.2,1.9
			C13.2,1.9,13.2,1.9,13.2,1.9z"/>
	</g>
	<g>
		<path d="M58,64c-1.5,0-3.1-0.6-4.2-1.8l-18-18l2.8-2.8l18,18c0.8,0.8,2,0.8,2.8,0c0.8-0.8,0.8-2,0-2.8L37,34.2l2.8-2.8l22.4,22.4
			c2.3,2.3,2.3,6.1,0,8.5C61.1,63.4,59.5,64,58,64z"/>
	</g>
	<path d="M63.4,3.4l-2.8-2.8L29.1,32.1l-4.2-4.2l-3.9,3.9c-0.4,0.4-0.7,0.9-0.9,1.5l-0.3,1c-0.4,1.2-1.3,2.1-2.4,2.4l-1,0.3
		c-0.6,0.2-1.1,0.5-1.5,0.9L2.6,50.1c-1.3,1.3-2.3,3-2.5,4.8c-0.3,2.5,0.5,4.9,2.3,6.7c1.8,1.8,4.2,2.6,6.7,2.3
		c1.8-0.2,3.5-1.2,4.8-2.5L26,49.4c0.4-0.4,0.7-0.9,0.9-1.5l0.3-1c0.4-1.2,1.3-2.1,2.4-2.4l1-0.3c0.6-0.2,1.1-0.5,1.5-0.9l3.9-3.9
		l-4.2-4.2L63.4,3.4z M29.4,40.2l-2.9,1c-1.2,0.4-2.1,1.3-2.4,2.4l-0.7,2c-0.2,0.6-0.5,1.1-0.9,1.5L11,58.6c-1.6,1.6-4.4,1.8-6,0.1
		C4.4,57.9,4,57,4,56c0-1.1,0.4-2.1,1.2-2.8l11.6-11.6c0.4-0.4,0.9-0.7,1.5-0.9l2-0.7c1.2-0.4,2.1-1.3,2.4-2.4l1-2.9l1.1-1.1
		l5.7,5.7L29.4,40.2z"/>
</g>
</svg>
