<?xml version="1.0" encoding="utf-8"?>
<!-- Generator: Adobe Illustrator 18.0.0, SVG Export Plug-In . SVG Version: 6.00 Build 0)  -->
<!DOCTYPE svg PUBLIC "-//W3C//DTD SVG 1.1//EN" "http://www.w3.org/Graphics/SVG/1.1/DTD/svg11.dtd">
<svg version="1.1" id="Warstwa_1" xmlns="http://www.w3.org/2000/svg" xmlns:xlink="http://www.w3.org/1999/xlink" x="0px" y="0px"
	 viewBox="0 0 49 48" enable-background="new 0 0 49 48" xml:space="preserve">
<path d="M48.5,6.4l-6.1-6c-0.6-0.6-1.6-0.6-2.2,0L25.6,14.8c-0.6,0.6-1.6,0.6-2.2,0L8.8,0.5c-0.6-0.6-1.6-0.6-2.2,0l-6.1,6
	C-0.2,7-0.2,8,0.5,8.6l14.6,14.3c0.6,0.6,0.6,1.6,0,2.2L0.5,39.4c-0.6,0.6-0.6,1.6,0,2.2l6.1,6c0.6,0.6,1.6,0.6,2.2,0l14.6-14.3
	c0.6-0.6,1.6-0.6,2.2,0l14.6,14.3c0.6,0.6,1.6,0.6,2.2,0l6.1-6c0.6-0.6,0.6-1.6,0-2.2L33.9,25.1c-0.6-0.6-0.6-1.6,0-2.2L48.5,8.6
	C49.2,8,49.2,7,48.5,6.4z"/>
</svg>
