<svg xmlns="http://www.w3.org/2000/svg" viewBox="0 0 28 38.32"><defs><style>.cls-1{fill:#fff}</style></defs><title>klawiaturka</title><g id="Layer_2" data-name="Layer 2"><g id="Layer_1-2" data-name="Layer 1"><rect class="cls-1" x="22" width="6" height="6" rx="1" ry="1"/><path class="cls-1" d="M28 16v-4a1 1 0 0 0-1-1h-4a1 1 0 0 0-1 1v4a1 1 0 0 0 1 1h4a1 1 0 0 0 1-1zm-5 0v-4h4v4zm5 11v-4a1 1 0 0 0-1-1h-4a1 1 0 0 0-1 1v4a1 1 0 0 0 1 1h4a1 1 0 0 0 1-1zm-5 0v-4h4v4zM17 5V1a1 1 0 0 0-1-1h-4a1 1 0 0 0-1 1v4a1 1 0 0 0 1 1h4a1 1 0 0 0 1-1zm-5 0V1h4v4zm5 11v-4a1 1 0 0 0-1-1h-4a1 1 0 0 0-1 1v4a1 1 0 0 0 1 1h4a1 1 0 0 0 1-1zm-5 0v-4h4v4zm5 11v-4a1 1 0 0 0-1-1h-4a1 1 0 0 0-1 1v4a1 1 0 0 0 1 1h4a1 1 0 0 0 1-1zm-5 0v-4h4v4zM6 5V1a1 1 0 0 0-1-1H1a1 1 0 0 0-1 1v4a1 1 0 0 0 1 1h4a1 1 0 0 0 1-1zM1 5V1h4v4zm5 11v-4a1 1 0 0 0-1-1H1a1 1 0 0 0-1 1v4a1 1 0 0 0 1 1h4a1 1 0 0 0 1-1zm-5 0v-4h4v4zm5 11v-4a1 1 0 0 0-1-1H1a1 1 0 0 0-1 1v4a1 1 0 0 0 1 1h4a1 1 0 0 0 1-1zm-5 0v-4h4v4zm12.29 10.82a1 1 0 0 0 1.73 0l1-1.66 1-1.66a1 1 0 0 0-.87-1.5h-3.91a1 1 0 0 0-.87 1.5l1 1.66z"/></g></g></svg>