<svg xmlns="http://www.w3.org/2000/svg" viewBox="0 0 64 64"><path d="M15.6 31.9c-4-.1-7.7-1.6-10.5-4.2C.6 23.5-1.1 17.2.7 11.3c.2-.8.9-1.4 1.7-1.6.8-.2 1.7 0 2.3.6l5.8 5.8c.3.3.8.5 1.3.4l3.1-.6c.6-.1 1-.5 1.1-1.1l.6-3.1c.1-.5-.1-.9-.4-1.3l-5.8-5.8c-.6-.5-.9-1.4-.7-2.2.2-.8.8-1.5 1.6-1.7 5.7-1.7 11.8-.2 16 4 4.6 4.6 5.9 11.6 3.4 17.6l1.6 1.6-2.8 2.8-3.7-3.7.5-.9c2.1-4 2.2-8.9-.3-12.6-2.4-3.8-6.5-5.7-10.7-5.5l5.1 5.1c.3.3.5.8.4 1.3l-1.6 7.8c-.1.6-.5 1-1.1 1.1l-7.8 1.6c-.5.1-.9-.1-1.3-.4l-5-5.2c-.2 3.5 1.1 7 3.8 9.5 2.1 2 4.9 3.1 7.9 3.1l-.1 4zm-2.4-30zM58 64c-1.5 0-3.1-.6-4.2-1.8l-18-18 2.8-2.8 18 18c.8.8 2 .8 2.8 0 .8-.8.8-2 0-2.8L37 34.2l2.8-2.8 22.4 22.4c2.3 2.3 2.3 6.1 0 8.5-1.1 1.1-2.7 1.7-4.2 1.7z"/><path d="M63.4 3.4L60.6.6 29.1 32.1l-4.2-4.2-3.9 3.9c-.4.4-.7.9-.9 1.5l-.3 1c-.4 1.2-1.3 2.1-2.4 2.4l-1 .3c-.6.2-1.1.5-1.5.9L2.6 50.1c-1.3 1.3-2.3 3-2.5 4.8-.3 2.5.5 4.9 2.3 6.7 1.8 1.8 4.2 2.6 6.7 2.3 1.8-.2 3.5-1.2 4.8-2.5l12.1-12c.4-.4.7-.9.9-1.5l.3-1c.4-1.2 1.3-2.1 2.4-2.4l1-.3c.6-.2 1.1-.5 1.5-.9l3.9-3.9-4.2-4.2L63.4 3.4zm-34 36.8l-2.9 1c-1.2.4-2.1 1.3-2.4 2.4l-.7 2c-.2.6-.5 1.1-.9 1.5L11 58.6c-1.6 1.6-4.4 1.8-6 .1-.6-.8-1-1.7-1-2.7 0-1.1.4-2.1 1.2-2.8l11.6-11.6c.4-.4.9-.7 1.5-.9l2-.7c1.2-.4 2.1-1.3 2.4-2.4l1-2.9 1.1-1.1 5.7 5.7-1.1.9z"/></svg>